<mxfile host="app.diagrams.net" modified="2021-01-26T10:56:54.683Z" agent="5.0 (Windows NT 10.0; Win64; x64) AppleWebKit/537.36 (KHTML, like Gecko) Chrome/87.0.4280.88 Safari/537.36" etag="keh9uHTJTkfDgYXFawti" version="14.2.7" type="github">
  <diagram id="0g-cLpa_L3bT_o7kX3fC" name="Page-1">
    <mxGraphModel dx="1038" dy="492" grid="1" gridSize="10" guides="1" tooltips="1" connect="1" arrows="1" fold="1" page="1" pageScale="1" pageWidth="827" pageHeight="1169" math="0" shadow="0">
      <root>
        <mxCell id="0" />
        <mxCell id="1" parent="0" />
        <mxCell id="pBYM3_GW4upPW4wwLv3C-1" value="PredictServing" style="rounded=1;whiteSpace=wrap;html=1;fillColor=#d0cee2;strokeColor=#56517e;" vertex="1" parent="1">
          <mxGeometry x="180" y="470" width="100" height="30" as="geometry" />
        </mxCell>
        <mxCell id="pBYM3_GW4upPW4wwLv3C-5" value="PS" style="rounded=1;whiteSpace=wrap;html=1;fillColor=#dae8fc;strokeColor=#6c8ebf;" vertex="1" parent="1">
          <mxGeometry x="120" y="598" width="100" height="30" as="geometry" />
        </mxCell>
        <mxCell id="pBYM3_GW4upPW4wwLv3C-6" value="PS" style="rounded=1;whiteSpace=wrap;html=1;fillColor=#dae8fc;strokeColor=#6c8ebf;" vertex="1" parent="1">
          <mxGeometry x="240" y="598" width="100" height="30" as="geometry" />
        </mxCell>
        <mxCell id="pBYM3_GW4upPW4wwLv3C-7" value="PS" style="rounded=1;whiteSpace=wrap;html=1;fillColor=#dae8fc;strokeColor=#6c8ebf;" vertex="1" parent="1">
          <mxGeometry x="400" y="598" width="100" height="30" as="geometry" />
        </mxCell>
        <mxCell id="pBYM3_GW4upPW4wwLv3C-8" value="PredictServing" style="rounded=1;whiteSpace=wrap;html=1;fillColor=#d0cee2;strokeColor=#56517e;" vertex="1" parent="1">
          <mxGeometry x="300" y="470" width="100" height="30" as="geometry" />
        </mxCell>
        <mxCell id="pBYM3_GW4upPW4wwLv3C-9" value="" style="endArrow=none;dashed=1;html=1;dashPattern=1 3;strokeWidth=2;" edge="1" parent="1">
          <mxGeometry width="50" height="50" relative="1" as="geometry">
            <mxPoint x="355" y="613.5" as="sourcePoint" />
            <mxPoint x="385" y="613.5" as="targetPoint" />
          </mxGeometry>
        </mxCell>
        <mxCell id="pBYM3_GW4upPW4wwLv3C-10" value="" style="endArrow=classic;startArrow=classic;html=1;exitX=0.5;exitY=0;exitDx=0;exitDy=0;" edge="1" parent="1" source="pBYM3_GW4upPW4wwLv3C-5">
          <mxGeometry width="50" height="50" relative="1" as="geometry">
            <mxPoint x="180" y="550" as="sourcePoint" />
            <mxPoint x="230" y="500" as="targetPoint" />
          </mxGeometry>
        </mxCell>
        <mxCell id="pBYM3_GW4upPW4wwLv3C-11" value="" style="endArrow=classic;startArrow=classic;html=1;exitX=0.5;exitY=0;exitDx=0;exitDy=0;" edge="1" parent="1" source="pBYM3_GW4upPW4wwLv3C-6">
          <mxGeometry width="50" height="50" relative="1" as="geometry">
            <mxPoint x="240" y="660" as="sourcePoint" />
            <mxPoint x="230" y="500" as="targetPoint" />
          </mxGeometry>
        </mxCell>
        <mxCell id="pBYM3_GW4upPW4wwLv3C-12" value="" style="endArrow=classic;startArrow=classic;html=1;exitX=0.5;exitY=0;exitDx=0;exitDy=0;entryX=0.5;entryY=1;entryDx=0;entryDy=0;" edge="1" parent="1" source="pBYM3_GW4upPW4wwLv3C-7" target="pBYM3_GW4upPW4wwLv3C-1">
          <mxGeometry width="50" height="50" relative="1" as="geometry">
            <mxPoint x="320" y="610" as="sourcePoint" />
            <mxPoint x="260" y="500" as="targetPoint" />
          </mxGeometry>
        </mxCell>
        <mxCell id="pBYM3_GW4upPW4wwLv3C-13" value="" style="endArrow=classic;startArrow=classic;html=1;exitX=0.5;exitY=0;exitDx=0;exitDy=0;entryX=0.5;entryY=1;entryDx=0;entryDy=0;" edge="1" parent="1" source="pBYM3_GW4upPW4wwLv3C-5" target="pBYM3_GW4upPW4wwLv3C-8">
          <mxGeometry width="50" height="50" relative="1" as="geometry">
            <mxPoint x="720" y="620" as="sourcePoint" />
            <mxPoint x="500" y="510" as="targetPoint" />
          </mxGeometry>
        </mxCell>
        <mxCell id="pBYM3_GW4upPW4wwLv3C-14" value="" style="endArrow=classic;startArrow=classic;html=1;exitX=0.5;exitY=0;exitDx=0;exitDy=0;entryX=0.5;entryY=1;entryDx=0;entryDy=0;" edge="1" parent="1" source="pBYM3_GW4upPW4wwLv3C-6" target="pBYM3_GW4upPW4wwLv3C-8">
          <mxGeometry width="50" height="50" relative="1" as="geometry">
            <mxPoint x="530" y="720" as="sourcePoint" />
            <mxPoint x="730" y="610" as="targetPoint" />
          </mxGeometry>
        </mxCell>
        <mxCell id="pBYM3_GW4upPW4wwLv3C-15" value="" style="endArrow=classic;startArrow=classic;html=1;exitX=0.5;exitY=0;exitDx=0;exitDy=0;" edge="1" parent="1" source="pBYM3_GW4upPW4wwLv3C-7">
          <mxGeometry width="50" height="50" relative="1" as="geometry">
            <mxPoint x="630" y="620" as="sourcePoint" />
            <mxPoint x="350" y="500" as="targetPoint" />
          </mxGeometry>
        </mxCell>
        <mxCell id="pBYM3_GW4upPW4wwLv3C-16" value="Hdfs" style="rounded=1;whiteSpace=wrap;html=1;fillColor=#bac8d3;strokeColor=#23445d;" vertex="1" parent="1">
          <mxGeometry x="120" y="735" width="440" height="35" as="geometry" />
        </mxCell>
        <mxCell id="pBYM3_GW4upPW4wwLv3C-18" value="" style="endArrow=none;dashed=1;html=1;dashPattern=1 3;strokeWidth=2;" edge="1" parent="1">
          <mxGeometry width="50" height="50" relative="1" as="geometry">
            <mxPoint x="80" y="663" as="sourcePoint" />
            <mxPoint x="650" y="663" as="targetPoint" />
          </mxGeometry>
        </mxCell>
        <mxCell id="pBYM3_GW4upPW4wwLv3C-19" value="在线Predict" style="rounded=1;whiteSpace=wrap;html=1;strokeColor=#6c8ebf;fillColor=none;fontStyle=1" vertex="1" parent="1">
          <mxGeometry x="640" y="520" width="100" height="30" as="geometry" />
        </mxCell>
        <mxCell id="pBYM3_GW4upPW4wwLv3C-21" value="PredictAPI" style="rounded=1;whiteSpace=wrap;html=1;fillColor=#e1d5e7;strokeColor=#9673a6;" vertex="1" parent="1">
          <mxGeometry x="420" y="470" width="100" height="30" as="geometry" />
        </mxCell>
        <mxCell id="pBYM3_GW4upPW4wwLv3C-23" value="Tool" style="rounded=1;whiteSpace=wrap;html=1;fillColor=#dae8fc;strokeColor=#6c8ebf;" vertex="1" parent="1">
          <mxGeometry x="169" y="689" width="100" height="30" as="geometry" />
        </mxCell>
        <mxCell id="pBYM3_GW4upPW4wwLv3C-24" value="Tool" style="rounded=1;whiteSpace=wrap;html=1;fillColor=#dae8fc;strokeColor=#6c8ebf;" vertex="1" parent="1">
          <mxGeometry x="320" y="689" width="100" height="30" as="geometry" />
        </mxCell>
        <mxCell id="pBYM3_GW4upPW4wwLv3C-25" value="" style="endArrow=none;dashed=1;html=1;dashPattern=1 3;strokeWidth=2;" edge="1" parent="1">
          <mxGeometry width="50" height="50" relative="1" as="geometry">
            <mxPoint x="80" y="440" as="sourcePoint" />
            <mxPoint x="650" y="440" as="targetPoint" />
          </mxGeometry>
        </mxCell>
        <mxCell id="pBYM3_GW4upPW4wwLv3C-26" value="业务层" style="rounded=1;whiteSpace=wrap;html=1;strokeColor=#6c8ebf;fillColor=none;fontStyle=1" vertex="1" parent="1">
          <mxGeometry x="640" y="370" width="100" height="30" as="geometry" />
        </mxCell>
        <mxCell id="pBYM3_GW4upPW4wwLv3C-27" value="NN" style="rounded=1;whiteSpace=wrap;html=1;fillColor=#d0cee2;strokeColor=#56517e;" vertex="1" parent="1">
          <mxGeometry x="236" y="373" width="100" height="30" as="geometry" />
        </mxCell>
        <mxCell id="pBYM3_GW4upPW4wwLv3C-28" value="PredictServing" style="rounded=1;whiteSpace=wrap;html=1;fillColor=#d0cee2;strokeColor=#56517e;" vertex="1" parent="1">
          <mxGeometry x="360" y="373" width="100" height="30" as="geometry" />
        </mxCell>
        <mxCell id="pBYM3_GW4upPW4wwLv3C-29" value="离线训练/模型" style="rounded=1;whiteSpace=wrap;html=1;strokeColor=#6c8ebf;fillColor=none;fontStyle=1" vertex="1" parent="1">
          <mxGeometry x="640" y="705" width="100" height="30" as="geometry" />
        </mxCell>
      </root>
    </mxGraphModel>
  </diagram>
</mxfile>
